<svg width="155" height="34" viewBox="0 0 155 34" fill="none" xmlns="http://www.w3.org/2000/svg">
<path d="M148.168 12.597V26.5615H154.674V29.5766H144.875V12.597H140.432V9.58191H144.875V3.85168H148.168V9.58191H153.444V12.597H148.168Z" fill="#DCC8F0"/>
<path d="M122.5 29.5761V9.58141H125.634V12.7948H125.832C126.493 11.7105 127.419 10.8377 128.609 10.1765C129.799 9.51529 131.174 9.18469 132.735 9.18469C135.142 9.18469 137.019 9.92524 138.368 11.4063C139.744 12.861 140.431 14.9371 140.431 17.6348V29.5761H137.138V18.1902C137.138 16.286 136.702 14.8181 135.829 13.7866C134.956 12.7287 133.674 12.1998 131.981 12.1998C130.183 12.1998 128.702 12.7948 127.538 13.985C126.374 15.1752 125.792 16.7224 125.792 18.6266V29.5761H122.5Z" fill="#DCC8F0"/>
<path d="M120.405 20.6102H103.504C103.716 22.5145 104.443 24.0484 105.686 25.2122C106.929 26.3759 108.477 26.9577 110.328 26.9577C111.862 26.9577 113.145 26.6139 114.176 25.9263C115.234 25.2122 116.001 24.2865 116.477 23.1492H119.929C119.32 25.0535 118.17 26.6668 116.477 27.9892C114.811 29.3116 112.761 29.9728 110.328 29.9728C108.424 29.9728 106.678 29.5232 105.091 28.6239C103.531 27.6983 102.288 26.442 101.362 24.8551C100.463 23.2682 100.013 21.5094 100.013 19.5787C100.013 17.648 100.463 15.8892 101.362 14.3024C102.288 12.7155 103.531 11.4724 105.091 10.5732C106.678 9.64753 108.424 9.18469 110.328 9.18469C112.206 9.18469 113.912 9.63431 115.446 10.5335C116.98 11.4328 118.183 12.689 119.056 14.3024C119.955 15.9157 120.405 17.7538 120.405 19.8168V20.6102ZM110.328 12.1998C108.582 12.1998 107.101 12.7155 105.885 13.747C104.694 14.7784 103.941 16.1537 103.623 17.8728H116.953C116.636 16.2066 115.882 14.8446 114.692 13.7866C113.528 12.7287 112.073 12.1998 110.328 12.1998Z" fill="#DCC8F0"/>
<path d="M88.8156 29.9728C86.8849 29.9728 85.1261 29.5232 83.5392 28.6239C81.9788 27.7247 80.7489 26.4817 79.8497 24.8948C78.9505 23.3079 78.5009 21.5359 78.5009 19.5787C78.5009 17.6216 78.9505 15.8496 79.8497 14.2627C80.7489 12.6758 81.9788 11.4328 83.5392 10.5335C85.1261 9.63431 86.8849 9.18469 88.8156 9.18469C90.5347 9.18469 92.0554 9.52852 93.3778 10.2162C94.7267 10.9038 95.811 11.803 96.6309 12.9139C97.4773 13.9982 98.0459 15.1619 98.3368 16.405H94.9647C94.5415 15.2148 93.7878 14.223 92.7034 13.4296C91.619 12.6097 90.3231 12.1998 88.8156 12.1998C86.7791 12.1998 85.1261 12.8874 83.8566 14.2627C82.5871 15.6115 81.9523 17.3836 81.9523 19.5787C81.9523 21.7739 82.5871 23.5592 83.8566 24.9345C85.1261 26.2833 86.7791 26.9577 88.8156 26.9577C90.3231 26.9577 91.619 26.561 92.7034 25.7676C93.7878 24.9477 94.5415 23.9427 94.9647 22.7525H98.3368C98.0459 23.9956 97.4773 25.1725 96.6309 26.2833C95.811 27.3677 94.7267 28.2537 93.3778 28.9413C92.0554 29.629 90.5347 29.9728 88.8156 29.9728Z" fill="#DCC8F0"/>
<path d="M43.9442 29.9717C42.1987 29.9717 40.6118 29.5353 39.1836 28.6626C37.7819 27.7898 36.6711 26.5732 35.8512 25.0127C35.0313 23.4259 34.6213 21.6142 34.6213 19.5777C34.6213 17.5412 35.0313 15.7427 35.8512 14.1822C36.6711 12.5954 37.7819 11.3655 39.1836 10.4927C40.6118 9.61996 42.1987 9.18359 43.9442 9.18359C45.4518 9.18359 46.8139 9.52739 48.0305 10.215C49.2735 10.8762 50.2124 11.7358 50.8472 12.7937H51.0455L51.0455 3.8517H54.3383L54.3383 29.575H51.2042V26.2426H51.0059C50.3182 27.3798 49.3396 28.2923 48.0701 28.9799C46.8006 29.6411 45.4253 29.9717 43.9442 29.9717ZM44.6583 26.9567C46.5626 26.9567 48.0966 26.2955 49.2603 24.9731C50.4504 23.6507 51.0455 21.8522 51.0455 19.5777C51.0455 17.3031 50.4504 15.5046 49.2603 14.1822C48.0966 12.8598 46.5626 12.1986 44.6583 12.1986C42.6483 12.1986 41.0482 12.8598 39.858 14.1822C38.6679 15.4782 38.0728 17.2767 38.0728 19.5777C38.0728 21.8522 38.6679 23.6507 39.858 24.9731C41.0482 26.2955 42.6483 26.9567 44.6583 26.9567Z" fill="#DCC8F0"/>
<path d="M76.825 20.6089H59.9247C60.1363 22.5131 60.8636 24.0471 62.1067 25.2108C63.3497 26.3745 64.8969 26.9564 66.7483 26.9564C68.2823 26.9564 69.565 26.6126 70.5965 25.9249C71.6544 25.2108 72.4214 24.2852 72.8975 23.1479H76.3489C75.7406 25.0521 74.5901 26.6655 72.8975 27.9879C71.2312 29.3103 69.1815 29.9715 66.7483 29.9715C64.844 29.9715 63.0985 29.5218 61.5116 28.6226C59.9512 27.6969 58.7081 26.4407 57.7824 24.8538C56.8832 23.2669 56.4336 21.5081 56.4336 19.5774C56.4336 17.6467 56.8832 15.8879 57.7824 14.301C58.7081 12.7142 59.9512 11.4711 61.5116 10.5719C63.0985 9.64621 64.844 9.18336 66.7483 9.18336C68.6261 9.18336 70.332 9.63298 71.866 10.5322C73.4 11.4314 74.6033 12.6877 75.4761 14.301C76.3754 15.9144 76.825 17.7525 76.825 19.8154V20.6089ZM66.7483 12.1984C65.0027 12.1984 63.5216 12.7142 62.305 13.7456C61.1149 14.7771 60.3611 16.1524 60.0437 17.8715H73.3735C73.0561 16.2053 72.3024 14.8432 71.1122 13.7853C69.9485 12.7274 68.4939 12.1984 66.7483 12.1984Z" fill="#DCC8F0"/>
<path d="M20.7572 0.633438H15.4051C14.8066 0.633438 14.3219 1.11815 14.3219 1.71659V5.98152C14.3219 6.57996 13.8372 7.06467 13.2388 7.06467H7.88661C7.45538 7.06467 7.04243 7.23595 6.73779 7.54058L1.25838 13.02C0.953745 13.3246 0.782471 13.7383 0.782471 14.1688V25.2752C0.782471 25.8737 1.26718 26.3584 1.86563 26.3584H6.46904C7.06748 26.3584 7.55219 25.8737 7.55219 25.2752V14.5791C7.55219 13.9806 8.0369 13.4959 8.63535 13.4959H13.2388C13.8372 13.4959 14.3219 13.0112 14.3219 12.4128V8.41862C14.3219 7.82017 14.8066 7.33546 15.4051 7.33546H20.0085C20.6069 7.33546 21.0916 7.82017 21.0916 8.41862V25.2752C21.0916 25.8737 20.6069 26.3584 20.0085 26.3584H8.63535C8.0369 26.3584 7.55219 26.8431 7.55219 27.4415V31.7065C7.55219 32.3049 8.0369 32.7896 8.63535 32.7896H20.7213C21.1505 32.7896 21.5621 32.6197 21.8668 32.3171L27.3821 26.835C27.6887 26.5303 27.8613 26.1153 27.8613 25.6828V7.5135C27.8613 7.22647 27.7469 6.95094 27.5438 6.74785L21.906 1.10935C21.6014 0.804712 21.1878 0.633438 20.7572 0.633438Z" fill="#DCC8F0"/>
</svg>
