<svg width="301" height="335" viewBox="0 0 301 335" fill="none" xmlns="http://www.w3.org/2000/svg">
<path d="M292.246 151.431C292.246 242.542 236.734 318.936 170.762 321.945C166.155 322.146 133.882 322.565 123.771 322.565C123.771 322.565 96.0692 3.36659 140.611 3.36659C160.816 3.36659 150.722 3.36659 170.744 4.15077C237.355 6.75863 292.228 60.3383 292.228 151.449L292.246 151.431Z" fill="#F8F4FC" stroke="#501464" stroke-width="1.21887" stroke-linejoin="round"/>
<g style="mix-blend-mode:multiply">
<path d="M292.246 151.431C292.246 242.542 236.734 318.936 170.762 321.945C166.155 322.146 133.882 322.565 123.771 322.565C123.771 322.565 96.0692 3.36659 140.611 3.36659C160.816 3.36659 150.722 3.36659 170.744 4.15077C237.355 6.75863 292.228 60.3383 292.228 151.449L292.246 151.431Z" fill="#DCC8F0"/>
</g>
<path d="M254.086 151.267C254.086 243.636 197.805 321.088 130.92 324.133C66.7221 327.051 16.5122 259.776 16.5122 173.972C16.5122 88.1677 66.7038 11.2997 130.92 1.94418C197.787 -7.79426 254.086 58.8976 254.086 151.267Z" fill="#E5D9F2"/>
<path d="M130.92 1.94418C66.7221 11.2997 16.5122 88.1677 16.5122 173.972C16.5122 259.776 66.7038 327.051 130.92 324.133C197.787 321.088 254.086 243.636 254.086 151.267C254.086 58.8976 197.805 -7.79426 130.92 1.94418ZM131.633 298.073C77.7844 300.517 35.6746 244.092 35.6746 172.13C35.6746 100.167 77.7844 35.7005 131.633 27.8586C187.712 19.6886 234.923 75.6208 234.923 153.109C234.923 230.597 187.712 295.538 131.633 298.091V298.073Z" fill="#F8F4FC"/>
<path d="M254.086 151.267C254.086 243.636 197.805 321.088 130.92 324.133C66.7221 327.051 16.5122 259.776 16.5122 173.972C16.5122 88.1677 66.7038 11.2997 130.92 1.94418C197.787 -7.79426 254.086 58.8976 254.086 151.267Z" stroke="#501464" stroke-width="1.21887" stroke-linejoin="round"/>
<path d="M301 42.0737C272 42.0737 262.328 51.721 262.328 80.6445C262.328 51.721 252.655 42.0737 223.656 42.0737C252.655 42.0737 262.328 32.4265 262.328 3.50295C262.328 32.4265 272 42.0737 301 42.0737Z" fill="#F8F4FC"/>
<path d="M93.3445 296.429C64.3449 296.429 54.6722 306.076 54.6722 335C54.6722 306.076 44.9996 296.429 16 296.429C44.9996 296.429 54.6722 286.782 54.6722 257.858C54.6722 286.782 64.3449 296.429 93.3445 296.429Z" fill="#F8F4FC"/>
<mask id="mask0_1977_9796" style="mask-type:luminance" maskUnits="userSpaceOnUse" x="65" y="76" width="120" height="164">
<path d="M184.914 76.1497H65.7345V239.168H184.914V76.1497Z" fill="white"/>
</mask>
<g mask="url(#mask0_1977_9796)">
<path d="M153.648 76.1497H130.097C127.464 76.1497 125.324 78.6116 125.324 81.6389V103.268C125.324 106.313 123.203 108.757 120.57 108.757H97.0197C95.1181 108.757 93.3079 109.632 91.9548 111.164L67.8373 138.957C66.4842 140.507 65.7345 142.604 65.7345 144.793V201.09C65.7345 204.135 67.8555 206.597 70.4885 206.597H90.748C93.381 206.597 95.5204 204.135 95.5204 201.09V146.854C95.5204 143.808 97.6414 141.364 100.274 141.364H120.534C123.167 141.364 125.288 138.902 125.288 135.875V115.614C125.288 112.587 127.427 110.125 130.06 110.125H150.32C152.953 110.125 155.074 112.587 155.074 115.614V201.072C155.074 204.117 152.953 206.579 150.32 206.579H100.256C97.6231 206.579 95.5021 209.023 95.5021 212.068V233.679C95.5021 236.725 97.6231 239.186 100.256 239.186H153.465C155.366 239.186 157.176 238.329 158.511 236.797L182.775 209.005C184.128 207.454 184.878 205.339 184.878 203.169V111.055C184.878 109.596 184.384 108.192 183.488 107.17L158.676 78.5934C157.341 77.0433 155.513 76.1862 153.611 76.1862" fill="#501464"/>
</g>
</svg>
